<svg width="50" height="51" viewBox="0 0 50 51" fill="none" xmlns="http://www.w3.org/2000/svg">
<circle cx="25" cy="25.7764" r="25" fill="white"/>
<path d="M31.6277 13.8916C30.4039 13.893 29.2306 14.3797 28.3652 15.2448C27.4999 16.11 27.0131 17.2831 27.0118 18.5067V21.5833H23.1653V18.5067C23.159 17.2868 22.67 16.119 21.805 15.2586C20.94 14.3982 19.7696 13.9153 18.5494 13.9153C17.3293 13.9153 16.1588 14.3982 15.2939 15.2586C14.4289 16.119 13.9398 17.2868 13.9336 18.5067V33.8903C13.9398 35.1102 14.4289 36.278 15.2939 37.1383C16.1588 37.9987 17.3293 38.4818 18.5494 38.4818C19.7696 38.4818 20.94 37.9987 21.805 37.1383C22.67 36.278 23.159 35.1102 23.1653 33.8903V32.352L21.6267 31.5828V33.8903C21.6267 34.4989 21.4462 35.0937 21.108 35.5997C20.7699 36.1057 20.2893 36.5 19.727 36.7329C19.1647 36.9657 18.5459 37.0267 17.949 36.908C17.3521 36.7891 16.8037 36.4962 16.3734 36.0659C15.943 35.6356 15.6499 35.0873 15.5312 34.4905C15.4125 33.8936 15.4735 33.275 15.7064 32.7128C15.9393 32.1507 16.3338 31.6701 16.8398 31.332C17.3459 30.994 17.9409 30.8136 18.5495 30.8136H31.6277C32.2363 30.8136 32.8313 30.994 33.3373 31.3321C33.8433 31.6702 34.2378 32.1507 34.4707 32.7129C34.7036 33.2751 34.7646 33.8937 34.6458 34.4905C34.5271 35.0874 34.234 35.6356 33.8036 36.0659C33.3733 36.4962 32.825 36.7893 32.228 36.908C31.6311 37.0267 31.0123 36.9657 30.45 36.7329C29.8878 36.5 29.4071 36.1057 29.069 35.5997C28.7309 35.0937 28.5504 34.4989 28.5504 33.8903V32.352L27.0118 31.5828V33.8903C27.0181 35.1102 27.5071 36.278 28.372 37.1383C29.237 37.9987 30.4075 38.4818 31.6275 38.4818C32.8477 38.4818 34.0182 37.9987 34.8832 37.1383C35.7482 36.278 36.2371 35.1102 36.2434 33.8903V18.5067C36.2421 17.2831 35.7553 16.1101 34.89 15.2449C34.0247 14.3797 32.8514 13.893 31.6277 13.8916ZM28.5504 18.5067C28.5504 17.8982 28.7308 17.3033 29.069 16.7973C29.4071 16.2913 29.8876 15.897 30.45 15.6641C31.0122 15.4312 31.6309 15.3702 32.228 15.4889C32.8249 15.6076 33.3731 15.9007 33.8036 16.331C34.234 16.7612 34.5271 17.3095 34.6458 17.9063C34.7646 18.5031 34.7036 19.1218 34.4707 19.684C34.2378 20.2462 33.8433 20.7267 33.3374 21.0648C32.8313 21.4028 32.2363 21.5833 31.6277 21.5833H28.5504V18.5067ZM18.5495 15.43C19.3653 15.4309 20.1475 15.7554 20.7244 16.3322C21.3012 16.909 21.6257 17.691 21.6267 18.5067V21.5833H18.5495C18.1438 21.5858 17.7415 21.5081 17.366 21.3547C16.9904 21.2012 16.6489 20.975 16.3611 20.689C16.0733 20.4031 15.8449 20.063 15.689 19.6885C15.5332 19.314 15.4529 18.9123 15.4529 18.5066C15.4529 18.101 15.5332 17.6993 15.689 17.3248C15.8449 16.9502 16.0733 16.6102 16.3611 16.3242C16.6489 16.0383 16.9904 15.8121 17.366 15.6586C17.7415 15.5051 18.1438 15.4274 18.5495 15.43ZM31.6277 29.2749H18.5495C17.4134 29.274 16.3172 29.6936 15.4722 30.453V21.9436C16.3172 22.7029 17.4134 23.1225 18.5495 23.1215H31.6277C32.7638 23.1225 33.86 22.7029 34.7048 21.9436V30.453C33.86 29.6936 32.7638 29.274 31.6277 29.2749Z" fill="url(#paint0_linear_459_2187)"/>
<defs>
<linearGradient id="paint0_linear_459_2187" x1="25.0885" y1="13.8916" x2="25.0885" y2="38.4818" gradientUnits="userSpaceOnUse">
<stop stop-color="#4B38E4"/>
<stop offset="1" stop-color="#642493"/>
</linearGradient>
</defs>
</svg>
