<svg width="59" height="54" viewBox="0 0 59 54" fill="none" xmlns="http://www.w3.org/2000/svg">
<path d="M23.7266 28.4014H34.2734V31.917H23.7266V28.4014Z" fill="white"/>
<path d="M47.6772 31.9168H37.7891V33.6746C37.7891 34.646 37.0026 35.4324 36.0312 35.4324H21.9688C20.9974 35.4324 20.2109 34.646 20.2109 33.6746V31.9168H10.3228C8.04999 31.9168 6.03995 30.468 5.32034 28.3119L-1 9.34766V47.7371C-1 50.6448 1.36572 53.0105 4.27344 53.0105H53.7266C56.6343 53.0105 59 50.6448 59 47.7371V9.34903L52.6792 28.3119C51.9601 30.468 49.95 31.9168 47.6772 31.9168Z" fill="white"/>
<path d="M36.0322 0.276367H21.9697C19.062 0.276367 16.6963 2.64209 16.6963 5.5498V7.30762H2.02539L8.65518 27.1997C8.89551 27.9189 9.56659 28.4014 10.3237 28.4014H20.2119V26.6436C20.2119 25.6722 20.9983 24.8857 21.9697 24.8857H36.0322C37.0036 24.8857 37.79 25.6722 37.79 26.6436V28.4014H47.6782C48.4353 28.4014 49.1064 27.9189 49.3467 27.1997L55.977 7.30762H41.3056V5.5498C41.3056 2.64209 38.9399 0.276367 36.0322 0.276367ZM20.2119 7.30762V5.5498C20.2119 4.5798 20.9997 3.79199 21.9697 3.79199H36.0322C37.0022 3.79199 37.79 4.5798 37.79 5.5498V7.30762H20.2119Z" fill="white"/>
</svg>
