<svg width="60" height="61" viewBox="0 0 60 61" fill="none" xmlns="http://www.w3.org/2000/svg">
<path d="M51.2133 9.5632C45.547 3.89695 38.0133 0.776367 30 0.776367C21.9867 0.776367 14.453 3.89695 8.78672 9.5632C3.12047 15.2295 0 22.7631 0 30.7764C0 38.7896 3.12047 46.3234 8.78672 51.9895C14.453 57.6557 21.9867 60.7764 30 60.7764C38.0133 60.7764 45.547 57.6558 51.2133 51.9895C56.8795 46.3233 60 38.7896 60 30.7764C60 22.7631 56.8795 15.2293 51.2133 9.5632ZM30 54.8879C16.7047 54.8879 5.88844 44.0715 5.88844 30.7764C5.88844 30.7546 5.88914 30.733 5.88926 30.7114C5.88926 30.7059 5.88844 30.7007 5.88844 30.6952C5.88844 30.6859 5.88961 30.677 5.88984 30.6679C5.94832 17.532 16.564 6.8448 29.6723 6.66902C29.6998 6.66773 29.727 6.66492 29.7547 6.66492C29.7714 6.66492 29.7875 6.66691 29.8041 6.66738C29.8695 6.66691 29.9346 6.66492 30.0001 6.66492C43.2954 6.66492 54.1117 17.4813 54.1117 30.7765C54.1117 44.0716 43.2953 54.8879 30 54.8879Z" fill="white"/>
<path d="M48.3139 32.2243C47.3335 32.2243 46.5387 31.4296 46.5387 30.4492C46.5387 29.4688 47.3335 28.674 48.3139 28.674H50.4536C49.4486 18.8214 41.458 11.0053 31.5287 10.2715V12.1342C31.5287 13.1146 30.734 13.9093 29.7536 13.9093C28.7732 13.9093 27.9784 13.1146 27.9784 12.1342V10.3139C18.1961 11.2725 10.4039 19.1149 9.52234 28.9193H11.4386C12.419 28.9193 13.2138 29.7141 13.2138 30.6945C13.2138 31.6748 12.419 32.4696 11.4386 32.4696H9.50781C10.324 42.4318 18.2724 50.4046 28.2238 51.2597V49.0093C28.2238 48.0289 29.0186 47.2342 29.999 47.2342C30.9794 47.2342 31.7741 48.0289 31.7741 49.0093V51.2597C41.807 50.3975 49.8038 42.3006 50.5086 32.2243H48.3139ZM37.1849 26.1004L31.2543 32.0311C30.9214 32.364 30.47 32.5511 29.9991 32.5511C29.5284 32.5511 29.0767 32.364 28.7439 32.0311L18.4205 21.7077C17.7272 21.0145 17.7272 19.8906 18.4205 19.1973C19.1137 18.504 20.2376 18.504 20.9309 19.1973L29.9992 28.2655L34.6748 23.59C35.3679 22.8967 36.4919 22.8967 37.1852 23.59C37.8782 24.2831 37.8782 25.4072 37.1849 26.1004Z" fill="white"/>
</svg>
