<svg width="60" height="61" viewBox="0 0 60 61" fill="none" xmlns="http://www.w3.org/2000/svg">
<path d="M8.90625 28.9014C10.3244 28.9014 11.608 28.3324 12.5565 27.4187L17.7599 30.0201C17.7338 30.2321 17.6953 30.4404 17.6953 30.6592C17.6953 33.5669 20.061 35.9326 22.9688 35.9326C25.8765 35.9326 28.2422 33.5669 28.2422 30.6592C28.2422 29.8476 28.0426 29.0877 27.7135 28.4001L34.7722 21.3414C35.4597 21.6705 36.2196 21.8701 37.0312 21.8701C39.939 21.8701 42.3047 19.5044 42.3047 16.5967C42.3047 16.0492 42.1971 15.5315 42.0415 15.0348L48.1746 10.4361C49.0114 10.995 50.0143 11.3232 51.0938 11.3232C54.0015 11.3232 56.3672 8.95752 56.3672 6.0498C56.3672 3.14209 54.0015 0.776367 51.0938 0.776367C48.186 0.776367 45.8203 3.14209 45.8203 6.0498C45.8203 6.59729 45.9279 7.11502 46.0835 7.61169L39.9504 12.2104C39.1136 11.6515 38.1107 11.3232 37.0312 11.3232C34.1235 11.3232 31.7578 13.689 31.7578 16.5967C31.7578 17.4083 31.9574 18.1682 32.2865 18.8557L25.2278 25.9145C24.5403 25.5853 23.7804 25.3857 22.9688 25.3857C21.5506 25.3857 20.267 25.9547 19.3185 26.8684L14.1151 24.267C14.1412 24.055 14.1797 23.8467 14.1797 23.6279C14.1797 20.7202 11.814 18.3545 8.90625 18.3545C5.99854 18.3545 3.63281 20.7202 3.63281 23.6279C3.63281 26.5356 5.99854 28.9014 8.90625 28.9014Z" fill="white"/>
<path d="M58.2422 57.2607H56.3672V20.1123C56.3672 19.1409 55.5807 18.3545 54.6094 18.3545H47.5781C46.6068 18.3545 45.8203 19.1409 45.8203 20.1123V57.2607H42.3047V30.6592C42.3047 29.6878 41.5182 28.9014 40.5469 28.9014H33.5156C32.5443 28.9014 31.7578 29.6878 31.7578 30.6592V57.2607H28.2422V44.7217C28.2422 43.7503 27.4557 42.9639 26.4844 42.9639H19.4531C18.4818 42.9639 17.6953 43.7503 17.6953 44.7217V57.2607H14.1797V37.6904C14.1797 36.7191 13.3932 35.9326 12.4219 35.9326H5.39062C4.41925 35.9326 3.63281 36.7191 3.63281 37.6904V57.2607H1.75781C0.786438 57.2607 0 58.0472 0 59.0186C0 59.9899 0.786438 60.7764 1.75781 60.7764H58.2422C59.2136 60.7764 60 59.9899 60 59.0186C60 58.0472 59.2136 57.2607 58.2422 57.2607Z" fill="white"/>
</svg>
