<svg width="50" height="61" viewBox="0 0 50 61" fill="none" xmlns="http://www.w3.org/2000/svg">
<path d="M48.3178 17.7666L26.0523 1.126C25.4284 0.659825 24.5717 0.659825 23.9477 1.126L1.68212 17.7666C1.07567 18.2199 0.827587 19.0106 1.06641 19.7291C1.30524 20.4476 1.97731 20.9325 2.73446 20.9325H9.17976V24.2244C11.2793 25.4421 12.6954 27.713 12.6954 30.3097V34.995H16.5553C15.5961 33.4644 15.0391 31.6572 15.0391 29.7215C15.0391 24.2291 19.5076 19.7606 25 19.7606C30.4925 19.7606 34.9609 24.2291 34.9609 29.7215C34.9609 31.6572 34.4041 33.4644 33.4448 34.995H37.3047V30.3097C37.3047 27.713 38.7208 25.4422 40.8202 24.2245V20.9326H47.2656C48.0227 20.9326 48.6948 20.4477 48.9336 19.7292C49.1725 19.0108 48.9244 18.2199 48.3178 17.7666Z" fill="white"/>
<path d="M25 36.167C21.446 36.167 18.5547 33.2756 18.5547 29.7217C18.5547 26.1677 21.446 23.2764 25 23.2764C28.5539 23.2764 31.4453 26.1677 31.4453 29.7217C31.4453 33.2756 28.5539 36.167 25 36.167Z" fill="white"/>
<path d="M9.76587 49.057C9.22084 49.057 8.68517 49.017 8.16111 48.9414C7.27412 51.3903 5.83143 53.6329 3.92257 55.4544L1.52093 57.7463C1.00109 58.2422 0.835506 59.0046 1.10269 59.6717C1.36988 60.3384 2.01593 60.7758 2.73441 60.7758H11.5234V49.0571H9.76587V49.057Z" fill="white"/>
<path d="M38.4766 49.0571V60.7758H47.2656C47.9841 60.7758 48.6302 60.3386 48.8974 59.6717C49.1645 59.0047 48.9989 58.2423 48.4792 57.7463L46.0776 55.4544C44.1688 53.6329 42.7261 51.3903 41.8391 48.9414C41.3151 49.0171 40.7795 49.057 40.2345 49.057H38.4766V49.0571Z" fill="white"/>
<path d="M40.8202 30.3096V36.7527C40.8202 37.7235 40.0332 38.5106 39.0624 38.5106H29.6813C28.2848 39.2575 26.6913 39.6824 24.9999 39.6824C23.3086 39.6824 21.7151 39.2575 20.3185 38.5106H10.9375C9.9667 38.5106 9.17967 37.7235 9.17967 36.7527V30.3096C9.17967 28.3679 7.60573 26.7939 5.66405 26.7939C3.72238 26.7939 2.14844 28.3679 2.14844 30.3096V37.9246C2.14844 42.1314 5.5587 45.5418 9.76561 45.5418H15.039V60.7761H34.9609V45.5418H40.2343C44.4411 45.5418 47.8514 42.1314 47.8514 37.9246V30.3096C47.8514 28.3679 46.2775 26.7939 44.3358 26.7939C42.3943 26.7939 40.8202 28.368 40.8202 30.3096Z" fill="white"/>
</svg>
