<svg width="38" height="61" viewBox="0 0 38 61" fill="none" xmlns="http://www.w3.org/2000/svg">
<path d="M29.2494 20.7081L32.4934 22.6727C32.7784 22.8453 33.0928 22.9274 33.4034 22.9274C33.9987 22.9274 34.5795 22.6252 34.9104 22.0789C35.4139 21.2475 35.148 20.1654 34.3167 19.6619L34.0034 19.4721L34.4937 19.4086C35.4575 19.2838 36.1379 18.4013 36.0131 17.4374C35.8883 16.4734 35.0057 15.7937 34.0419 15.918C34.0419 15.918 28.5377 16.7378 28.3125 16.808C28.4711 18.3037 28.7977 19.5783 29.2494 20.7081Z" fill="white"/>
<path d="M31.5588 29.7557C29.0607 27.1652 26.5022 24.5079 25.3356 20.0801C25.3284 20.0802 25.3213 20.0811 25.3142 20.0811H12.6848C12.6775 20.0811 12.6705 20.0801 12.6633 20.0801C11.4967 24.5079 8.93828 27.1652 6.4402 29.7557C3.25527 32.8139 0.466797 37.1278 0.466797 42.3513C1.4541 66.9293 36.5556 66.9073 37.5323 42.3513C37.5321 37.1278 34.7436 32.8139 31.5588 29.7557ZM20.812 50.3486V50.5159C20.812 51.4881 20.0239 52.2762 19.0517 52.2762C18.0795 52.2762 17.2914 51.4881 17.2914 50.5159V50.3514C15.8723 49.8622 14.6957 48.7914 14.0884 47.3556C13.7098 46.4603 14.1286 45.4274 15.0241 45.0486C15.9193 44.67 16.9523 45.0888 17.331 45.9843C17.6241 46.6772 18.2994 47.125 19.0518 47.125C20.0812 47.125 20.9186 46.2875 20.9186 45.2582C20.9186 44.2288 20.0812 43.3914 19.0518 43.3914C16.0812 43.3914 13.6645 40.9746 13.6645 38.0041C13.6645 35.6498 15.183 33.6449 17.2915 32.9136V32.6554C17.2915 31.6832 18.0796 30.8951 19.0518 30.8951C20.024 30.8951 20.8121 31.6832 20.8121 32.6554V32.9108C21.5486 33.1649 22.2266 33.5788 22.8007 34.1353C23.4988 34.8118 23.5163 35.9263 22.8396 36.6244C22.163 37.3225 21.0487 37.3399 20.3506 36.6633C20.0007 36.3241 19.5394 36.1373 19.0518 36.1373C18.0224 36.1373 17.185 36.9748 17.185 38.0041C17.185 39.0335 18.0224 39.8709 19.0518 39.8709C22.0224 39.8709 24.4391 42.2877 24.4391 45.2583C24.439 47.6123 22.9205 49.6173 20.812 50.3486Z" fill="white"/>
<path d="M29.2071 5.95916C28.4148 3.99721 26.606 2.79229 24.3686 2.73581C24.3539 2.73545 24.339 2.73522 24.3242 2.73522C23.949 2.73522 23.5789 2.77401 23.2183 2.8503C22.3171 1.45389 20.6538 0.76354 18.9986 0.776548C17.3673 0.789321 15.744 1.48518 14.8666 2.86459C14.4675 2.77155 14.0544 2.71999 13.6353 2.72573C11.421 2.74249 9.55777 4.00049 8.77261 6.00885C7.91609 8.19967 8.51632 10.7736 10.2663 12.4136C11.5735 13.6388 12.6117 15.5261 13.087 16.5612H24.9426C25.3252 15.6904 26.2514 13.9344 27.7978 12.3647C29.5196 10.6171 30.0727 8.10288 29.2071 5.95916Z" fill="white"/>
</svg>
