<svg width="60" height="53" viewBox="0 0 60 53" fill="none" xmlns="http://www.w3.org/2000/svg">
<path d="M33.8438 39.9951C34.5352 39.3037 35.332 38.7998 36.1875 38.4834C34.3008 35.9639 34.6055 32.1318 36.8906 29.9287L36.9492 29.8701C38.8945 27.9248 41.7656 27.4443 44.1563 28.4287C44.4609 27.3857 45.0352 26.4248 45.8203 25.6396L45.8789 25.5811C48.3398 23.0146 52.7813 23.0146 55.2539 25.5811L55.418 25.7451L55.7578 25.4053C61.4063 19.7686 61.4063 10.6045 55.7813 4.96777C50.1445 -0.668946 40.9805 -0.668946 35.3555 4.96777L31.9922 8.33105L38.3789 14.542C41.2266 17.1787 41.2617 22.0537 38.4609 24.7373C35.8008 27.5147 31.0078 27.5147 28.3477 24.7373L26.1328 22.5459C26.0625 22.4756 25.9453 22.4756 25.8867 22.5459L12.1992 36.2217C11.332 37.0537 11.332 38.5654 12.1992 39.3975C13.0781 40.2764 14.5078 40.2764 15.375 39.3975C15.3984 39.374 19.3242 35.4482 19.3242 35.4482C20.0977 34.6748 21.3633 34.6748 22.1367 35.4482C22.9102 36.2217 22.9102 37.4873 22.1367 38.2607L18.4102 41.9873C17.4141 42.9365 17.4141 44.6592 18.4102 45.6084C19.3594 46.6045 21.082 46.6045 22.0313 45.6084L25.7461 41.8936C26.5195 41.1201 27.7852 41.1201 28.5586 41.8936C29.332 42.667 29.332 43.9326 28.5586 44.7061L24.8672 48.3975C23.8477 49.3936 23.8359 51.0342 24.8438 52.042C25.793 53.0381 27.5156 53.0381 28.4648 52.042L32.625 47.8818C31.2305 45.3857 31.6992 42.0342 33.7617 40.0303L33.8438 39.9951Z" fill="white"/>
<path d="M3.98487 5.42433C-1.32372 10.7329 -1.33544 19.3696 3.96144 24.69L11.2271 31.5571L23.063 19.7212C24.6099 18.104 27.3989 18.104 28.9458 19.7212L31.1489 21.9243C32.3325 23.1548 34.4536 23.1548 35.6255 21.9243C36.2349 21.315 36.563 20.5181 36.5513 19.6626C36.5396 18.8071 36.1997 18.0103 35.5903 17.4126L23.2857 5.44776C17.9771 0.115733 9.30519 0.104015 3.98487 5.42433Z" fill="white"/>
<path d="M49.4312 42.4678L49.4898 42.4092C50.5093 41.4248 50.521 39.6553 49.4898 38.6709L45.8335 35.0146L43.5132 32.6943C42.4819 31.6631 40.8062 31.6631 39.7749 32.6943L39.7163 32.7529C38.6968 33.7373 38.6851 35.5068 39.7163 36.4912L45.6929 42.4678C46.7241 43.499 48.3999 43.499 49.4312 42.4678Z" fill="white"/>
<path d="M56.0518 35.8462L56.1103 35.7876C57.1416 34.7564 57.1416 33.0806 56.1103 32.0493L52.4541 28.3931C51.4697 27.3735 49.7002 27.3618 48.7158 28.3931L48.6572 28.4517C47.6377 29.436 47.6377 31.2056 48.6572 32.19L52.3135 35.8462C53.3447 36.8774 55.0205 36.8774 56.0518 35.8462Z" fill="white"/>
<path d="M38.978 48.9834C40.0093 50.0146 41.6851 50.0146 42.7163 48.9834L42.7749 48.9248C43.8062 47.8936 43.8062 46.2178 42.7749 45.1865L40.4077 42.8193C39.3765 41.7881 37.7007 41.7881 36.6694 42.8193L36.6108 42.8779C35.5913 43.8623 35.5796 45.6318 36.6108 46.6162L38.978 48.9834Z" fill="white"/>
</svg>
