<svg width="113" height="82" viewBox="0 0 113 82" fill="none" xmlns="http://www.w3.org/2000/svg">
<path d="M111.499 4.185C110.814 2.53564 109.503 1.22496 107.854 0.539999C107.043 0.194123 106.171 0.0106649 105.289 0H71.5391C69.7489 0 68.032 0.71116 66.7662 1.97703C65.5003 3.2429 64.7891 4.95979 64.7891 6.75C64.7891 8.54021 65.5003 10.2571 66.7662 11.523C68.032 12.7888 69.7489 13.5 71.5391 13.5H89.0216L51.2891 51.2325L29.0816 28.9575C28.4541 28.3248 27.7076 27.8227 26.885 27.48C26.0625 27.1373 25.1802 26.9609 24.2891 26.9609C23.3981 26.9609 22.5158 27.1373 21.6932 27.48C20.8707 27.8227 20.1241 28.3248 19.4966 28.9575L-21.0034 69.4575C-21.636 70.085 -22.1382 70.8316 -22.4809 71.6541C-22.8236 72.4767 -23 73.3589 -23 74.25C-23 75.1411 -22.8236 76.0233 -22.4809 76.8459C-22.1382 77.6684 -21.636 78.415 -21.0034 79.0425C-20.3759 79.6752 -19.6293 80.1773 -18.8068 80.52C-17.9842 80.8627 -17.1019 81.0391 -16.2109 81.0391C-15.3198 81.0391 -14.4375 80.8627 -13.615 80.52C-12.7924 80.1773 -12.0459 79.6752 -11.4184 79.0425L24.2891 43.2675L46.4966 65.5425C47.1241 66.1752 47.8707 66.6773 48.6932 67.02C49.5158 67.3627 50.3981 67.5391 51.2891 67.5391C52.1802 67.5391 53.0625 67.3627 53.885 67.02C54.7076 66.6773 55.4541 66.1752 56.0816 65.5425L98.5391 23.0175V40.5C98.5391 42.2902 99.2503 44.0071 100.516 45.273C101.782 46.5388 103.499 47.25 105.289 47.25C107.079 47.25 108.796 46.5388 110.062 45.273C111.328 44.0071 112.039 42.2902 112.039 40.5V6.75C112.028 5.86793 111.845 4.9965 111.499 4.185Z" fill="#3461FF"/>
</svg>
