<svg width="72" height="51" viewBox="0 0 72 51" fill="none" xmlns="http://www.w3.org/2000/svg">
<path d="M69.9317 8.58447C69.1087 5.50944 66.692 3.09292 63.617 2.26978C58.0493 0.776368 35.7125 0.776367 35.7125 0.776367C35.7125 0.776367 13.376 0.776368 7.80807 2.26978C4.73308 3.09292 2.31656 5.50944 1.49341 8.58447C4.47035e-07 14.1524 0 25.7764 0 25.7764C0 25.7764 4.47035e-07 37.4004 1.49341 42.9684C2.31656 46.0434 4.73308 48.4599 7.80807 49.2829C13.376 50.7764 35.7125 50.7764 35.7125 50.7764C35.7125 50.7764 58.0493 50.7764 63.617 49.2829C66.692 48.4599 69.1087 46.0434 69.9317 42.9684C71.4252 37.4004 71.4253 25.7764 71.4253 25.7764C71.4253 25.7764 71.4193 14.1524 69.9317 8.58447Z" fill="#FF0000"/>
<path d="M28.5625 36.4916L47.1185 25.7791L28.5625 15.0664V36.4916Z" fill="white"/>
</svg>
